<svg xmlns="http://www.w3.org/2000/svg" xmlns:xlink="http://www.w3.org/1999/xlink" version="1.1" width="640" height="480" viewBox="0 0 640 480" xml:space="preserve">
<desc>Created with Fabric.js 3.6.6</desc>
<defs>
</defs>
<g transform="matrix(0.13 0 0 0.13 59.67 17.78)">
<g style="">
		<g transform="matrix(1 0 0 1 250.99 15.87)">
<path style="stroke: none; stroke-width: 1; stroke-dasharray: none; stroke-linecap: butt; stroke-dashoffset: 0; stroke-linejoin: miter; stroke-miterlimit: 4; fill: rgb(0,0,0); fill-rule: nonzero; opacity: 1;" transform=" translate(68.07, -48.06)" d="M 0 0 C 7.7736862 8.8141038 9.9375 19.22697026 9.9375 30.6875 C -6.8925 30.6875 -23.7225 30.6875 -41.0625 30.6875 C -42.0525 28.7075 -43.0425 26.7275 -44.0625 24.6875 C -49.20635268 21.25826488 -54.78058066 21.52928014 -60.8046875 21.51953125 C -61.89549118 21.51453865 -61.89549118 21.51453865 -63.0083313 21.50944519 C -64.53956474 21.50440655 -66.07080906 21.50203591 -67.60205078 21.50219727 C -69.92368977 21.50001299 -72.24485124 21.48183105 -74.56640625 21.46289062 C -76.0624984 21.45995546 -77.55859277 21.45797149 -79.0546875 21.45703125 C -80.08008133 21.44625298 -80.08008133 21.44625298 -81.12619019 21.43525696 C -86.09442554 21.45839092 -90.31755966 22.35114419 -95.0625 23.6875 C -95.3925 25.3375 -95.7225 26.9875 -96.0625 28.6875 C -86.86504798 30.34080636 -77.75291942 31.10032822 -68.43664551 31.52093506 C -12.95371607 34.08805567 -12.95371607 34.08805567 2.75 47 C 10.75629675 56.83630743 12.95766606 66.02448638 11.9375 78.6875 C 10.72405533 86.33526055 8.21049109 92.01466124 2.9375 97.6875 C 2.43476562 98.23148437 1.93203125 98.77546875 1.4140625 99.3359375 C -16.05339507 116.12173819 -50.29929938 115.28304109 -72.7734375 114.875 C -94.9549393 114.20963812 -120.56503782 113.20132433 -138.0625 97.6875 C -145.92717214 88.04693416 -147.08394715 80.4086871 -148.0625 67.6875 C -131.2325 67.6875 -114.4025 67.6875 -97.0625 67.6875 C -96.4025 69.9975 -95.7425 72.3075 -95.0625 74.6875 C -86.45358276 76.87886075 -78.18949234 76.99470616 -69.36669922 76.94824219 C -66.9356205 76.93749169 -64.5052755 76.94820176 -62.07421875 76.9609375 C -60.50520673 76.95961623 -58.93619516 76.9570545 -57.3671875 76.953125 C -56.65239227 76.95717346 -55.93759705 76.96122192 -55.20114136 76.96539307 C -50.20539235 76.91960681 -45.87248795 76.04636039 -41.0625 74.6875 C -40.5675 72.7075 -40.5675 72.7075 -40.0625 70.6875 C -46.94343851 66.73096036 -53.9249305 66.61913502 -61.69140625 66.2578125 C -63.14228123 66.18628793 -64.59312666 66.11416198 -66.04394531 66.04150391 C -67.16621521 65.98606415 -67.16621521 65.98606415 -68.31115723 65.92950439 C -126.65356928 62.9792959 -126.65356928 62.9792959 -139.96484375 49.8046875 C -147.15548214 40.83836579 -149.05199499 29.94479806 -148.0625 18.6875 C -146.37041707 9.62353985 -143.31803629 2.56329496 -136.0625 -3.3125 C -105.57409886 -23.01949552 -28.86928592 -26.323822 0 0 Z" stroke-linecap="round"/>
</g>
		<g transform="matrix(1 0 0 1 -226.92 16.93)">
<path style="stroke: none; stroke-width: 1; stroke-dasharray: none; stroke-linecap: butt; stroke-dashoffset: 0; stroke-linejoin: miter; stroke-miterlimit: 4; fill: rgb(0,0,0); fill-rule: nonzero; opacity: 1;" transform=" translate(66.92, -45.81)" d="M 0 0 C 10.13285024 9.45431116 16.41257512 22.96718905 17.12451172 36.80249023 C 17.67806381 56.09945358 16.52068804 72.81376031 3.375 88.1328125 C -14.4282266 106.54537573 -39.26596191 111.05828164 -63.92456055 111.54907227 C -87.35707053 111.78187213 -112.23824705 108.55912337 -131 93.3828125 C -131.77214844 92.76019531 -132.54429687 92.13757813 -133.33984375 91.49609375 C -142.16751035 83.57382885 -148.63706626 71.23340591 -150 59.3828125 C -150.16048828 58.28259766 -150.16048828 58.28259766 -150.32421875 57.16015625 C -152.67494984 39.3617637 -149.73133209 21.08613115 -139 6.3828125 C -125.90250463 -9.49367174 -106.95761228 -16.25631452 -87 -18.6171875 C -85.60974609 -18.78347656 -85.60974609 -18.78347656 -84.19140625 -18.953125 C -55.09982819 -21.8741247 -23.49636942 -18.99901746 0 0 Z M -95.75 32.9453125 C -99.5571082 37.85252664 -100.34213847 44.02008012 -99.7265625 50.0703125 C -98.15036015 56.78452511 -94.74606992 60.69258155 -89 64.3828125 C -77.08342116 70.41906085 -61.48353486 69.78440481 -48.84765625 66.41796875 C -42.96739006 64.28042343 -38.70524176 61.10762384 -35.5 55.6953125 C -33.07772619 50.0397357 -33.0006602 44.01166515 -34.625 38.11328125 C -36.97577442 32.62464277 -40.76820366 29.149545 -46 26.3828125 C -61.70605184 20.10512964 -83.167341 21.22056207 -95.75 32.9453125 Z" stroke-linecap="round"/>
</g>
		<g transform="matrix(1 0 0 1 -51.76 16.97)">
<path style="stroke: none; stroke-width: 1; stroke-dasharray: none; stroke-linecap: butt; stroke-dashoffset: 0; stroke-linejoin: miter; stroke-miterlimit: 4; fill: rgb(0,0,0); fill-rule: nonzero; opacity: 1;" transform=" translate(67.76, -44.82)" d="M 0 0 C 10.70870399 9.7785493 15.72731615 23.58162318 16.3828125 37.75390625 C 16.8963923 57.36555206 14.83129412 74.12514616 0.87890625 89.1015625 C -12.23759145 101.29218977 -29.37160204 107.43747807 -46.99609375 109.3515625 C -47.92035156 109.46113281 -48.84460938 109.57070312 -49.796875 109.68359375 C -69.9913314 111.7330988 -90.61827532 110.56535226 -109.99609375 104.3515625 C -110.89585937 104.06539063 -111.795625 103.77921875 -112.72265625 103.484375 C -126.76325093 98.44759024 -138.36921129 88.70615006 -145.453125 75.640625 C -153.18016702 59.16931011 -153.89810689 37.88529731 -148.31640625 20.57421875 C -142.28573049 5.85437407 -132.44219173 -4.79804961 -117.99609375 -11.6484375 C -108.36515079 -15.66315362 -98.37999172 -18.5207081 -87.99609375 -19.6484375 C -87.07183594 -19.75800781 -86.14757812 -19.86757813 -85.1953125 -19.98046875 C -55.19860347 -23.02478969 -23.88063322 -19.72138399 0 0 Z M -96.24609375 31.8515625 C -100.65092855 38.14418364 -100.88575756 43.75310732 -99.99609375 51.3515625 C -97.79588932 57.14300971 -93.77164424 61.61261601 -88.11328125 64.21875 C -75.5684307 69.22715041 -59.62631207 69.03761484 -46.99609375 64.3515625 C -41.4971672 61.4521285 -36.99883174 57.35977647 -34.99609375 51.3515625 C -34.16450581 41.29734644 -34.16450581 41.29734644 -37.99609375 32.3515625 C -44.91811911 24.95341899 -52.9337137 22.66870914 -62.87890625 22.1484375 C -75.08270166 21.92506638 -87.50609522 22.14045303 -96.24609375 31.8515625 Z" stroke-linecap="round"/>
</g>
		<g transform="matrix(1 0 0 1 101 2.84)">
<path style="stroke: none; stroke-width: 1; stroke-dasharray: none; stroke-linecap: butt; stroke-dashoffset: 0; stroke-linejoin: miter; stroke-miterlimit: 4; fill: rgb(0,0,0); fill-rule: nonzero; opacity: 1;" transform=" translate(15, -80.34)" d="M 0 0 C 0 10.23 0 20.46 0 31 C 16.5 31 33 31 50 31 C 50 45.19 50 59.38 50 74 C 33.5 74 17 74 0 74 C 0.2165625 82.29125 0.2165625 82.29125 0.4375 90.75 C 0.50215454 93.35793457 0.50215454 93.35793457 0.56811523 96.01855469 C 0.60625631 97.40300453 0.64472697 98.78744534 0.68359375 100.171875 C 0.7083075 101.24236084 0.7083075 101.24236084 0.73352051 102.33447266 C 0.82107177 107.26110842 0.82107177 107.26110842 2 112 C 4.03752771 113.288972 4.03752771 113.288972 7 114 C 7.95132813 114.2784375 7.95132813 114.2784375 8.921875 114.5625 C 14.49632357 115.94650102 19.973686 116.2097919 25.6875 116.25 C 26.38061279 116.25918457 27.07372559 116.26836914 27.7878418 116.27783203 C 35.3943702 116.23487186 42.28216249 115.029045 50 114 C 50 128.19 50 142.38 50 157 C 24.43725931 162.11254814 -10.28632693 163.69064448 -33.6015625 149.6875 C -43.03368749 143.05121662 -48.15109768 134.78623625 -50.57687378 123.59669495 C -51.32289174 119.01843681 -51.24397584 114.46744232 -51.1953125 109.83984375 C -51.1924826 108.80936417 -51.18965271 107.77888458 -51.18673706 106.71717834 C -51.17562863 103.45716257 -51.15054163 100.19743138 -51.125 96.9375 C -51.11495813 94.7141967 -51.1058344 92.49088906 -51.09765625 90.26757812 C -51.07742976 84.8448568 -51.03826318 79.42274333 -51 74 C -60.57 74 -70.14 74 -80 74 C -80 59.81 -80 45.62 -80 31 C -70.43 31 -60.86 31 -51 31 C -51 24.07 -51 17.14 -51 10 C -44.21979068 8.57202784 -37.43877729 7.14796201 -30.65698242 5.72753906 C -28.34913875 5.24359183 -26.04152004 4.7585705 -23.73413086 4.27246094 C -20.42099369 3.57465857 -17.10707151 2.88069994 -13.79296875 2.1875 C -12.7585112 1.96876221 -11.72405365 1.75002441 -10.6582489 1.5246582 C -9.6974794 1.32445068 -8.7367099 1.12424316 -7.74682617 0.91796875 C -6.90077316 0.74031982 -6.05472015 0.5626709 -5.18302917 0.37963867 C -3 0 -3 0 0 0 Z" stroke-linecap="round"/>
</g>
		<g transform="matrix(1 0 0 1 -366.5 16)">
<path style="stroke: none; stroke-width: 1; stroke-dasharray: none; stroke-linecap: butt; stroke-dashoffset: 0; stroke-linejoin: miter; stroke-miterlimit: 4; fill: rgb(0,0,0); fill-rule: nonzero; opacity: 1;" transform=" translate(52.5, -64.5)" d="M 0 0 C 0 16.83 0 33.66 0 51 C -4.186875 51.4125 -8.37375 51.825 -12.6875 52.25 C -31.70318852 53.79134352 -31.70318852 53.79134352 -47.390625 63.5625 C -53.28401802 71.14939676 -53.3185716 78.9922902 -53.4140625 88.27734375 C -53.43342865 89.4438295 -53.4527948 90.61031525 -53.4727478 91.81214905 C -53.53230104 95.52052608 -53.57883229 99.22893456 -53.625 102.9375 C -53.66320206 105.45899756 -53.70225508 107.98048238 -53.7421875 110.50195312 C -53.8395766 116.66790069 -53.91933954 122.8337203 -54 129 C -70.83 129 -87.66 129 -105 129 C -105 87.09 -105 45.18 -105 2 C -88.17 2 -71.34 2 -54 2 C -53.67 13.88 -53.34 25.76 -53 38 C -50.36 32.72 -47.72 27.44 -45 22 C -35.53232968 9.78807741 -24.27724981 3.18269351 -9.125 0.25 C -6.09188249 0.0073506 -3.04280801 0 0 0 Z" stroke-linecap="round"/>
</g>
		<g transform="matrix(1 0 0 1 382.39 -38.98)">
<path style="stroke: none; stroke-width: 1; stroke-dasharray: none; stroke-linecap: butt; stroke-dashoffset: 0; stroke-linejoin: miter; stroke-miterlimit: 4; fill: rgb(89,42,254); fill-rule: nonzero; opacity: 1;" transform=" translate(-2.64, -44.75)" d="M 0 0 C 1.0725 0.01417969 2.145 0.02835938 3.25 0.04296875 C 4.3225 0.04941406 5.395 0.05585938 6.5 0.0625 C 9.25 0.23046875 9.25 0.23046875 11.25 1.23046875 C 11.4098655 10.60924483 10.91433182 19.88237096 10.25 29.23046875 C 10.62286133 28.76672852 10.99572266 28.30298828 11.37988281 27.82519531 C 13.08416926 25.70832555 14.79204674 23.59438092 16.5 21.48046875 C 17.37978516 20.38605469 17.37978516 20.38605469 18.27734375 19.26953125 C 19.91795343 17.24181142 21.57960175 15.23366666 23.25 13.23046875 C 24.29414062 11.95429688 24.29414062 11.95429688 25.359375 10.65234375 C 27.25 9.23046875 27.25 9.23046875 29.7578125 9.2421875 C 32.68355285 10.40239488 34.07342323 11.67000763 36.125 14.04296875 C 36.74117187 14.73003906 37.35734375 15.41710938 37.9921875 16.125 C 39.25 18.23046875 39.25 18.23046875 39.19140625 20.2578125 C 37.97087614 22.81535484 36.47093856 24.14446829 34.3125 25.98046875 C 33.51070312 26.66625 32.70890625 27.35203125 31.8828125 28.05859375 C 27.71130558 31.4997775 23.50370757 34.89144152 19.25 38.23046875 C 20.66539062 38.1221875 20.66539062 38.1221875 22.109375 38.01171875 C 38.99136261 36.7913341 38.99136261 36.7913341 46.25 37.23046875 C 47.25 38.23046875 47.25 38.23046875 47.3828125 41.35546875 C 47.38023437 42.63421875 47.37765625 43.91296875 47.375 45.23046875 C 47.37886719 47.14859375 47.37886719 47.14859375 47.3828125 49.10546875 C 47.25 52.23046875 47.25 52.23046875 46.25 53.23046875 C 36.61795645 54.09514072 26.79518309 52.40655292 17.25 51.23046875 C 18.17941406 51.95492187 19.10882812 52.679375 20.06640625 53.42578125 C 23.23610253 55.90042126 26.39221038 58.39182892 29.54443359 60.88867188 C 30.93160709 61.97998386 32.33293035 63.05329181 33.73828125 64.12109375 C 36.26114644 66.10595663 38.02555812 67.6052378 39.125 70.66796875 C 37.52192211 75.36269685 33.680364 78.94613005 29.328125 81.24609375 C 27.25 81.23046875 27.25 81.23046875 24.8203125 79.171875 C 22.22094029 76.19721349 19.63457912 73.21860392 17.125 70.16796875 C 16.69574219 69.65169922 16.26648438 69.13542969 15.82421875 68.60351562 C 13.55644513 65.86474287 11.37212747 63.08277008 9.25 60.23046875 C 9.34087891 61.13756592 9.34087891 61.13756592 9.43359375 62.06298828 C 9.70876342 64.82685599 9.97941836 67.59114826 10.25 70.35546875 C 10.34539063 71.30679688 10.44078125 72.258125 10.5390625 73.23828125 C 11.53634537 83.4960479 11.53634537 83.4960479 11.25 87.23046875 C 9.25 89.23046875 9.25 89.23046875 6.28125 89.49609375 C 5.1159375 89.4909375 3.950625 89.48578125 2.75 89.48046875 C 1.5846875 89.485625 0.419375 89.49078125 -0.78125 89.49609375 C -3.75 89.23046875 -3.75 89.23046875 -5.75 87.23046875 C -5.76171875 84.17578125 -5.76171875 84.17578125 -5.4375 80.35546875 C -5.38408447 79.69087646 -5.33066895 79.02628418 -5.27563477 78.34155273 C -5.10992195 76.30360148 -4.9302486 74.2671789 -4.75 72.23046875 C -4.56243373 69.91797412 -4.37492599 67.60547475 -4.1875 65.29296875 C -4.04234019 63.60541068 -3.89662537 61.91790011 -3.75 60.23046875 C -4.15839111 60.72973877 -4.56678223 61.22900879 -4.98754883 61.7434082 C -6.84419853 64.01129935 -8.70332058 66.27715107 -10.5625 68.54296875 C -11.20509766 69.32865234 -11.84769531 70.11433594 -12.50976562 70.92382812 C -13.13173828 71.68115234 -13.75371094 72.43847656 -14.39453125 73.21875 C -14.96534424 73.91524658 -15.53615723 74.61174316 -16.12426758 75.3293457 C -17.60796949 77.06437901 -19.0344929 78.72336313 -20.75 80.23046875 C -23.72151041 80.39555266 -25.30471234 79.56216262 -27.6640625 77.8046875 C -31.4221948 74.42835749 -31.4221948 74.42835749 -32.75 72.23046875 C -32.83203125 69.30859375 -32.83203125 69.30859375 -31.75 66.23046875 C -29.69632 64.27668162 -27.86339182 62.75855218 -25.5625 61.16796875 C -24.42228443 60.34498533 -23.28295748 59.52076932 -22.14453125 58.6953125 C -21.58459473 58.29554199 -21.0246582 57.89577148 -20.44775391 57.48388672 C -17.78095246 55.51504021 -15.27361254 53.37879444 -12.75 51.23046875 C -13.52190674 51.30676514 -14.29381348 51.38306152 -15.08911133 51.46166992 C -18.57886844 51.79716791 -22.07040045 52.10784535 -25.5625 52.41796875 C -26.77744141 52.53849609 -27.99238281 52.65902344 -29.24414062 52.78320312 C -30.40751953 52.88310547 -31.57089844 52.98300781 -32.76953125 53.0859375 C -33.84307861 53.18543701 -34.91662598 53.28493652 -36.02270508 53.38745117 C -38.75 53.23046875 -38.75 53.23046875 -40.60107422 51.91748047 C -42.33945647 49.36494725 -42.11062313 47.21453296 -42.0625 44.16796875 C -42.05863281 43.10449219 -42.05476562 42.04101562 -42.05078125 40.9453125 C -41.75 38.23046875 -41.75 38.23046875 -39.75 36.23046875 C -37.24011172 36.22148347 -34.86701396 36.32715896 -32.375 36.54296875 C -31.6634375 36.59638428 -30.951875 36.6497998 -30.21875 36.70483398 C -28.06149627 36.86938257 -25.90585197 37.04856562 -23.75 37.23046875 C -22.52023437 37.3284375 -21.29046875 37.42640625 -20.0234375 37.52734375 C -17.26456732 37.75121388 -14.50702359 37.98505188 -11.75 38.23046875 C -12.69101562 37.49441406 -13.63203125 36.75835937 -14.6015625 36 C -15.85941274 35.01437108 -17.11722311 34.02869128 -18.375 33.04296875 C -18.99246094 32.56021484 -19.60992188 32.07746094 -20.24609375 31.58007812 C -21.48331533 30.60983594 -22.71673126 29.63472125 -23.94628906 28.65478516 C -25.1212569 27.72696134 -26.31033691 26.81665049 -27.51464844 25.92724609 C -29.99541109 24.03293988 -31.60027331 22.57611441 -32.8515625 19.6875 C -32.71147047 16.29835055 -31.53763269 15.24725595 -29.125 12.91796875 C -28.43148437 12.22058594 -27.73796875 11.52320313 -27.0234375 10.8046875 C -24.75 9.23046875 -24.75 9.23046875 -22.3203125 8.62109375 C -18.41904288 9.54601481 -16.61609748 12.26497394 -14.25 15.29296875 C -13.52816528 16.18181763 -13.52816528 16.18181763 -12.79174805 17.08862305 C -9.61932321 21.0257085 -6.57770023 25.03767185 -3.75 29.23046875 C -3.85828125 27.68939453 -3.85828125 27.68939453 -3.96875 26.1171875 C -5.27729776 6.89571332 -5.27729776 6.89571332 -4.75 2.23046875 C -2.75 0.23046875 -2.75 0.23046875 0 0 Z M 8.25 30.23046875 C 9.25 32.23046875 9.25 32.23046875 9.25 32.23046875 Z" stroke-linecap="round"/>
</g>
</g>
</g>
</svg>